<svg width="538.009" height="727.032" viewBox="0 0 538.009 727.032" xmlns="http://www.w3.org/2000/svg"><g id="svgGroup" stroke-linecap="round" fill-rule="nonzero" font-size="9pt" stroke="#ffffff" stroke-width="0" fill="#fda006" style="stroke:#ffffff;stroke-width:0;fill:#fda006"><path d="M 183.38 714.682 A 220.521 220.521 0 0 1 69.504 631.516 A 322.554 322.554 0 0 1 23.233 536.788 Q 0.004 462.188 0.004 361.016 Q 0.004 243.016 31.004 162.516 A 299.714 299.714 0 0 1 63.339 100.133 A 225.219 225.219 0 0 1 122.004 41.016 A 230.805 230.805 0 0 1 211.169 5.083 A 316.104 316.104 0 0 1 269.004 0.016 A 296.505 296.505 0 0 1 353.45 11.387 A 218.661 218.661 0 0 1 469.004 92.016 A 301.731 301.731 0 0 1 513.679 180.629 Q 527.267 222.46 533.264 273.532 A 742.926 742.926 0 0 1 538.004 360.016 A 736.65 736.65 0 0 1 532.986 448.498 Q 525.531 510.008 507.004 559.016 A 312.902 312.902 0 0 1 474.328 623.301 A 235.526 235.526 0 0 1 416.004 684.016 A 226.677 226.677 0 0 1 320.742 722.817 A 306.679 306.679 0 0 1 269.004 727.016 A 282.209 282.209 0 0 1 183.38 714.682 Z M 269.004 581.016 A 69.265 69.265 0 0 0 326.291 552.702 A 117.089 117.089 0 0 0 340.504 528.516 Q 364.004 476.016 364.004 360.016 Q 364.004 245.016 340.504 195.516 A 106.733 106.733 0 0 0 324.632 170.761 A 70.627 70.627 0 0 0 269.004 146.016 Q 221.004 146.016 197.504 195.516 A 176.885 176.885 0 0 0 186.144 228.541 Q 174.004 277.36 174.004 360.016 A 925.826 925.826 0 0 0 175.473 414.047 Q 179.879 489.141 197.504 528.516 A 115.846 115.846 0 0 0 212.424 553.599 A 69.115 69.115 0 0 0 269.004 581.016 Z"/></g></svg>