<svg width="572.003" height="723.007" viewBox="0 0 572.003 723.007" xmlns="http://www.w3.org/2000/svg"><g id="svgGroup" stroke-linecap="round" fill-rule="nonzero" font-size="9pt" stroke="#ffffff" stroke-width="0" fill="#ff6361" style="stroke:#ffffff;stroke-width:0;fill:#ff6361"><path d="M 294 632.004 L 294 596.004 L 93 596.004 A 155.957 155.957 0 0 1 66.225 593.85 Q 51.619 591.301 39.956 585.735 A 76.263 76.263 0 0 1 24.5 576.004 A 63.481 63.481 0 0 1 3.445 542.8 Q 0.485 532.125 0.068 519.269 A 131.793 131.793 0 0 1 0 515.004 Q 0 491.004 9 468.504 A 161.348 161.348 0 0 1 15.992 453.513 Q 24.577 437.166 38.929 416.906 A 518.748 518.748 0 0 1 41 414.004 L 285 58.004 Q 303.826 29.765 327.081 15.703 A 101.219 101.219 0 0 1 330 14.004 A 107.854 107.854 0 0 1 364.766 1.972 A 143.344 143.344 0 0 1 389 0.004 A 103.665 103.665 0 0 1 414.246 2.909 A 72.022 72.022 0 0 1 449 22.504 A 69.775 69.775 0 0 1 464.791 48.761 Q 471 66.566 471 91.004 L 471 457.004 L 495 457.004 A 128 128 0 0 1 516.817 458.739 Q 539.056 462.593 552.5 475.004 A 58.488 58.488 0 0 1 569.696 505.089 Q 571.991 514.622 572 525.915 A 111.461 111.461 0 0 1 572 526.004 A 94.784 94.784 0 0 1 569.901 546.593 Q 565.602 565.91 552.5 578.004 A 61.861 61.861 0 0 1 529.713 591.072 Q 520.217 594.231 508.642 595.367 A 139.864 139.864 0 0 1 495 596.004 L 471 596.004 L 471 632.004 Q 471 676.004 448.5 699.504 Q 427.937 720.98 390.252 722.829 A 148.006 148.006 0 0 1 383 723.004 A 123.225 123.225 0 0 1 356.311 720.286 Q 332.922 715.097 317.5 700.004 A 72.88 72.88 0 0 1 299.164 669.357 Q 295.614 658.178 294.504 644.715 A 154.864 154.864 0 0 1 294 632.004 Z M 134 457.004 L 294 457.004 L 294 221.004 L 322 221.004 L 134 500.004 L 134 457.004 Z"/></g></svg>