<svg width="598.016" height="705.007" viewBox="0 0 598.016 705.007" xmlns="http://www.w3.org/2000/svg"><g id="svgGroup" stroke-linecap="round" fill-rule="nonzero" font-size="9pt" stroke="#ffffff" stroke-width="0" fill="#69cefa" style="stroke:#ffffff;stroke-width:0;fill:#69cefa"><path d="M 350.004 705.003 L 96.004 705.003 A 144.609 144.609 0 0 1 68.826 702.611 Q 41.347 697.347 24.504 680.503 A 79.004 79.004 0 0 1 4.693 646.138 Q 0.004 630.128 0.004 610.003 L 0.004 95.003 A 138.147 138.147 0 0 1 2.61 67.283 Q 5.976 50.864 13.686 38.258 A 73.926 73.926 0 0 1 24.504 24.503 A 78.299 78.299 0 0 1 57.456 5.209 Q 74.34 0.003 96.004 0.003 L 340.004 0.003 A 428.988 428.988 0 0 1 398.04 3.717 Q 437.738 9.144 469.504 22.503 A 209.707 209.707 0 0 1 512.752 46.692 A 162.468 162.468 0 0 1 551.004 86.003 A 160.992 160.992 0 0 1 578.176 163.511 A 202.891 202.891 0 0 1 579.004 182.003 A 180.428 180.428 0 0 1 570.404 238.674 A 155.139 155.139 0 0 1 543.504 288.003 A 171.553 171.553 0 0 1 468.982 341.019 A 219.95 219.95 0 0 1 447.004 348.003 L 447.004 332.003 A 235.437 235.437 0 0 1 498.294 347.042 A 165.989 165.989 0 0 1 558.504 390.003 A 156.725 156.725 0 0 1 595.214 469.564 A 216.69 216.69 0 0 1 598.004 505.003 A 208.772 208.772 0 0 1 587.856 571.632 A 170.409 170.409 0 0 1 531.504 651.503 A 226.859 226.859 0 0 1 450.031 692.451 Q 416.961 701.816 377.557 704.194 A 457.536 457.536 0 0 1 350.004 705.003 Z M 176.004 415.003 L 176.004 570.003 L 325.004 570.003 A 211.523 211.523 0 0 0 351.516 568.461 Q 382.613 564.519 399.504 550.503 Q 422.212 531.66 422.977 494.609 A 126.224 126.224 0 0 0 423.004 492.003 Q 423.004 453.003 399.504 434.003 A 71.368 71.368 0 0 0 378.275 422.518 Q 358.455 415.491 329.125 415.035 A 264.861 264.861 0 0 0 325.004 415.003 L 176.004 415.003 Z M 176.004 135.003 L 176.004 280.003 L 307.004 280.003 A 221.034 221.034 0 0 0 333.032 278.579 Q 360.208 275.346 376.573 264.769 A 60.2 60.2 0 0 0 380.504 262.003 A 57.651 57.651 0 0 0 401.651 228.515 A 92.173 92.173 0 0 0 404.004 207.003 A 91.8 91.8 0 0 0 401.71 185.79 Q 396.663 164.537 380.504 152.503 Q 358.503 136.12 313.277 135.075 A 271.506 271.506 0 0 0 307.004 135.003 L 176.004 135.003 Z"/></g></svg>