<svg width="442.706" height="514.006" viewBox="0 0 442.706 514.006" xmlns="http://www.w3.org/2000/svg"><g id="svgGroup" stroke-linecap="round" fill-rule="nonzero" font-size="9pt" stroke="#ffffff" stroke-width="0" fill="#45d264" style="stroke:#ffffff;stroke-width:0;fill:#45d264"><path d="M 202.054 507.414 A 279.444 279.444 0 0 1 129.501 483.001 Q 68.001 452.001 34.001 393.501 A 248.568 248.568 0 0 1 3.662 305.637 A 325.184 325.184 0 0 1 0.001 256.001 A 378.046 378.046 0 0 1 0.003 255.064 Q 0.08 223.954 5.282 196.215 A 254.409 254.409 0 0 1 19.001 148.501 Q 38.001 101.001 74.501 68.001 A 244.799 244.799 0 0 1 146.062 23.348 A 286.996 286.996 0 0 1 161.501 17.501 A 314.506 314.506 0 0 1 229.119 2.462 A 397.048 397.048 0 0 1 274.001 0.001 Q 303.001 0.001 335.001 5.501 Q 367.001 11.001 401.001 26.001 Q 425.001 35.001 434.501 53.501 A 73.028 73.028 0 0 1 442.706 87.32 A 79.715 79.715 0 0 1 442.501 93.001 A 83.018 83.018 0 0 1 433.022 126.62 A 80.928 80.928 0 0 1 430.501 131.001 Q 420.001 148.001 401.501 154.001 A 43.868 43.868 0 0 1 387.882 156.118 Q 374.884 156.118 360.001 149.001 Q 344.001 141.001 326.501 137.501 A 180.403 180.403 0 0 0 303.663 134.378 A 153.463 153.463 0 0 0 293.001 134.001 A 154.525 154.525 0 0 0 269.164 135.751 A 112.805 112.805 0 0 0 245.501 142.001 A 90.123 90.123 0 0 0 213.684 162.66 A 87.928 87.928 0 0 0 211.001 165.501 A 97.45 97.45 0 0 0 195.426 189.074 A 123.982 123.982 0 0 0 189.501 204.001 A 148.627 148.627 0 0 0 183.437 231.774 A 196.297 196.297 0 0 0 182.001 256.001 Q 182.001 301.437 199.798 331.531 A 102.118 102.118 0 0 0 211.001 347.001 A 94.46 94.46 0 0 0 264.907 377.354 A 141.64 141.64 0 0 0 293.001 380.001 A 159.734 159.734 0 0 0 319.662 377.69 A 181.78 181.78 0 0 0 326.001 376.501 A 148.148 148.148 0 0 0 353.626 367.842 A 168.587 168.587 0 0 0 360.001 365.001 A 79.928 79.928 0 0 1 371.315 360.556 Q 379.48 358.086 386.94 358.086 A 41.08 41.08 0 0 1 401.001 360.501 A 56.754 56.754 0 0 1 429.307 382.948 A 69.995 69.995 0 0 1 430.001 384.001 Q 441.001 401.001 442.001 421.501 A 76.151 76.151 0 0 1 442.092 425.211 A 73.195 73.195 0 0 1 433.001 460.501 A 54.737 54.737 0 0 1 413.847 480.691 A 78.931 78.931 0 0 1 399.001 488.001 A 287.513 287.513 0 0 1 358.838 502.898 A 238.663 238.663 0 0 1 334.501 508.501 Q 303.001 514.001 274.001 514.001 A 374.757 374.757 0 0 1 202.054 507.414 Z"/></g></svg>