<svg width="19.601" height="19.401" viewBox="0 0 19.601 19.401" xmlns="http://www.w3.org/2000/svg"><g id="svgGroup" stroke-linecap="round" fill-rule="nonzero" font-size="9pt" stroke="#ffffff" stroke-width="0" fill="#fed406" style="stroke:#ffffff;stroke-width:0;fill:#fed406"><path d="M 6.715 19.029 A 8.663 8.663 0 0 1 2.65 16.7 A 9.103 9.103 0 0 1 0.156 11.632 A 12.781 12.781 0 0 1 0 9.6 A 11.371 11.371 0 0 1 0.405 6.493 A 8.691 8.691 0 0 1 2.65 2.65 A 8.835 8.835 0 0 1 7.292 0.234 A 12.838 12.838 0 0 1 9.8 0 A 13.347 13.347 0 0 1 12.716 0.299 Q 14.655 0.734 16.084 1.798 A 7.841 7.841 0 0 1 17.05 2.65 Q 19.6 5.3 19.6 9.6 A 12.356 12.356 0 0 1 19.227 12.72 A 8.992 8.992 0 0 1 17.05 16.7 A 8.283 8.283 0 0 1 12.962 19.036 Q 11.622 19.376 10.028 19.399 A 16.093 16.093 0 0 1 9.8 19.4 A 12.118 12.118 0 0 1 6.715 19.029 Z"/></g></svg>