<svg width="545.013" height="694.007" viewBox="0 0 545.013 694.007" xmlns="http://www.w3.org/2000/svg"><g id="svgGroup" stroke-linecap="round" fill-rule="nonzero" font-size="9pt" stroke="#ffffff" stroke-width="0" fill="#45d264" style="stroke:#ffffff;stroke-width:0;fill:#45d264"><path d="M 372.003 458.006 L 372.003 395.006 L 380.003 395.006 A 118.827 118.827 0 0 1 344.725 445.429 A 166.156 166.156 0 0 1 319.003 463.506 Q 273.003 490.006 219.003 490.006 A 240.718 240.718 0 0 1 158.152 482.617 A 194.654 194.654 0 0 1 104.003 459.506 A 205.7 205.7 0 0 1 31.024 380.785 A 245.955 245.955 0 0 1 27.503 374.006 Q 0.003 319.006 0.003 245.006 Q 0.003 189.006 16.003 144.006 A 245.931 245.931 0 0 1 40.514 93.411 A 210.397 210.397 0 0 1 60.503 67.006 Q 89.003 35.006 129.503 17.506 A 215.075 215.075 0 0 1 197.236 0.904 A 259.293 259.293 0 0 1 219.003 0.006 A 206.729 206.729 0 0 1 282.982 9.66 A 185.064 185.064 0 0 1 319.503 26.006 A 152.445 152.445 0 0 1 351.799 50.791 A 117.875 117.875 0 0 1 379.003 94.006 L 369.003 135.006 L 369.003 91.006 Q 369.003 48.006 392.503 25.006 Q 414.85 3.134 453.925 2.061 A 148.515 148.515 0 0 1 458.003 2.006 Q 490.523 2.006 511.352 15.795 A 68.279 68.279 0 0 1 522.503 25.006 A 74.192 74.192 0 0 1 540.383 56.143 Q 545.003 71.521 545.003 91.006 L 545.003 437.006 Q 545.003 565.006 473.003 629.506 Q 401.003 694.006 267.003 694.006 A 716.409 716.409 0 0 1 200.987 691.076 A 594.84 594.84 0 0 1 164.003 686.506 Q 121.065 679.797 88.53 667.886 A 272.457 272.457 0 0 1 81.003 665.006 A 108.257 108.257 0 0 1 63.437 657.271 Q 47.972 648.623 40.003 636.006 Q 28.926 618.467 28.926 599.225 A 67.666 67.666 0 0 1 29.003 596.006 Q 30.003 575.006 40.503 558.006 Q 51.003 541.006 69.003 533.506 A 47.25 47.25 0 0 1 87.359 529.877 Q 93.468 529.877 99.953 531.332 A 73.799 73.799 0 0 1 109.003 534.006 Q 147.941 549.935 180.613 556.075 A 249.258 249.258 0 0 0 189.003 557.506 A 582.878 582.878 0 0 0 214.456 560.857 Q 226.285 562.133 236.598 562.651 A 267.657 267.657 0 0 0 250.003 563.006 A 233.101 233.101 0 0 0 283.533 560.758 Q 300.654 558.263 314.462 552.998 A 93.902 93.902 0 0 0 341.503 537.506 Q 368.458 514.969 371.591 470.171 A 174.468 174.468 0 0 0 372.003 458.006 Z M 274.003 359.006 Q 304.003 359.006 325.003 345.506 A 86.855 86.855 0 0 0 351.883 317.8 A 110.264 110.264 0 0 0 358.003 306.506 Q 370.003 281.006 370.003 245.006 A 180.831 180.831 0 0 0 367.203 212.152 Q 363.755 193.51 356.06 178.788 A 92.348 92.348 0 0 0 344.003 161.006 A 85.448 85.448 0 0 0 284.724 131.475 A 119.801 119.801 0 0 0 274.003 131.006 A 99.153 99.153 0 0 0 242.487 135.891 A 88.966 88.966 0 0 0 224.003 144.506 A 84.224 84.224 0 0 0 193.144 178.071 A 103.904 103.904 0 0 0 190.503 183.506 Q 179.003 209.006 179.003 245.006 A 180.831 180.831 0 0 0 181.802 277.859 Q 185.25 296.502 192.946 311.224 A 92.348 92.348 0 0 0 205.003 329.006 Q 231.003 359.006 274.003 359.006 Z"/></g></svg>