<svg width="539.007" height="725.009" viewBox="0 0 539.007 725.009" xmlns="http://www.w3.org/2000/svg"><g id="svgGroup" stroke-linecap="round" fill-rule="nonzero" font-size="9pt" stroke="#ffffff" stroke-width="0" fill="#45d264" style="stroke:#ffffff;stroke-width:0;fill:#45d264"><path d="M 164.003 625.003 L 175.003 584.003 L 175.003 633.003 Q 175.003 677.003 152.503 700.003 A 72.725 72.725 0 0 1 119.441 719.06 Q 108.028 722.264 94.407 722.865 A 145.354 145.354 0 0 1 88.003 723.003 A 128.478 128.478 0 0 1 62.56 720.643 Q 47.469 717.592 35.896 710.595 A 67.507 67.507 0 0 1 22.503 700.003 Q 0.003 677.003 0.003 633.003 L 0.003 90.003 A 134.392 134.392 0 0 1 2.363 63.97 Q 7.37 38.636 23.003 23.003 Q 44.543 1.463 82.748 0.096 A 146.952 146.952 0 0 1 88.003 0.003 Q 121.072 0.003 142.608 13.606 A 71.68 71.68 0 0 1 154.503 23.003 Q 175.41 43.465 177.717 80.548 A 152.309 152.309 0 0 1 178.003 90.003 L 178.003 304.003 L 166.003 304.003 A 120.512 120.512 0 0 1 202.547 252.815 A 164.84 164.84 0 0 1 225.003 237.003 A 188.434 188.434 0 0 1 313.787 211.232 A 226.403 226.403 0 0 1 324.003 211.003 A 223.663 223.663 0 0 1 387.629 219.752 A 190.414 190.414 0 0 1 436.503 242.003 A 201.073 201.073 0 0 1 503.041 312.825 A 247.379 247.379 0 0 1 512.003 330.003 Q 536.894 382.55 538.839 455.493 A 469.447 469.447 0 0 1 539.003 468.003 Q 539.003 547.003 512.003 605.003 A 224.538 224.538 0 0 1 477.248 659.008 A 191.272 191.272 0 0 1 436.503 694.003 A 197.432 197.432 0 0 1 347.697 723.891 A 247.415 247.415 0 0 1 324.003 725.003 A 201.422 201.422 0 0 1 261.498 715.562 A 178.938 178.938 0 0 1 222.503 697.503 A 146.388 146.388 0 0 1 188.438 668.988 A 121.694 121.694 0 0 1 164.003 625.003 Z M 268.003 594.003 A 91.393 91.393 0 0 0 295.545 589.98 A 79.385 79.385 0 0 0 315.503 580.503 A 80.598 80.598 0 0 0 337.301 558.894 A 112.766 112.766 0 0 0 348.003 539.503 A 127.222 127.222 0 0 0 355.661 514.97 Q 360.003 494.472 360.003 468.003 A 273.13 273.13 0 0 0 358.059 434.166 Q 352.894 392.937 334.003 371.503 Q 308.003 342.003 268.003 342.003 Q 241.003 342.003 220.003 355.003 A 77.266 77.266 0 0 0 197.269 376.917 A 107.84 107.84 0 0 0 187.003 395.503 A 124.791 124.791 0 0 0 179.691 418.589 Q 175.003 439.878 175.003 468.003 Q 175.003 534.003 201.003 564.003 A 83.757 83.757 0 0 0 261.689 593.82 A 107.484 107.484 0 0 0 268.003 594.003 Z"/></g></svg>