<svg width="797.007" height="512.021" viewBox="0 0 797.007 512.021" xmlns="http://www.w3.org/2000/svg"><g id="svgGroup" stroke-linecap="round" fill-rule="nonzero" font-size="9pt" stroke="#ffffff" stroke-width="0" fill="#107eff" style="stroke:#ffffff;stroke-width:0;fill:#107eff"><path d="M 0.003 422.011 L 0.003 91.011 Q 0.003 48.011 22.503 25.011 A 72.725 72.725 0 0 1 55.565 5.954 Q 66.979 2.75 80.599 2.149 A 145.354 145.354 0 0 1 87.003 2.011 Q 118.581 2.011 138.854 15.013 A 66.219 66.219 0 0 1 151.003 25.011 A 74.207 74.207 0 0 1 168.169 55.093 Q 171.719 66.668 172.662 80.613 A 154.168 154.168 0 0 1 173.003 91.011 L 173.003 146.011 L 162.003 97.011 Q 183.003 53.011 224.503 26.511 A 167.267 167.267 0 0 1 290.526 2.346 A 218.61 218.61 0 0 1 323.003 0.011 A 187.654 187.654 0 0 1 368.758 5.349 A 146.441 146.441 0 0 1 415.503 26.011 A 131.666 131.666 0 0 1 457.485 73.05 A 183.644 183.644 0 0 1 471.003 105.011 L 457.003 105.011 Q 480.003 56.011 526.003 28.011 Q 572.003 0.011 628.003 0.011 A 245.541 245.541 0 0 1 667.766 3.044 Q 689.613 6.634 707.497 14.469 A 130.915 130.915 0 0 1 723.003 22.511 A 126.122 126.122 0 0 1 765.701 66.198 A 171.853 171.853 0 0 1 778.503 92.511 A 243.382 243.382 0 0 1 790.481 135.148 Q 794.558 156.469 796.086 181.163 A 499.719 499.719 0 0 1 797.003 212.011 L 797.003 422.011 A 131.619 131.619 0 0 1 794.592 448.044 Q 791.484 463.432 784.371 475.241 A 68.973 68.973 0 0 1 773.503 489.011 Q 751.862 510.191 713.684 511.867 A 152.398 152.398 0 0 1 707.003 512.011 A 123.01 123.01 0 0 1 680.929 509.415 Q 657.277 504.284 642.003 489.011 A 73.617 73.617 0 0 1 623.807 457.843 Q 620.242 446.174 619.323 432.088 A 154.786 154.786 0 0 1 619.003 422.011 L 619.003 217.011 A 226.192 226.192 0 0 0 618.086 195.86 Q 616.095 174.742 609.782 161.604 A 50.01 50.01 0 0 0 606.003 155.011 Q 593.003 136.011 563.003 136.011 A 83.714 83.714 0 0 0 539.151 139.224 A 61.796 61.796 0 0 0 506.503 162.011 A 87.15 87.15 0 0 0 493.259 188.694 Q 489.545 200.646 488.036 215.086 A 201.59 201.59 0 0 0 487.003 236.011 L 487.003 422.011 A 134.392 134.392 0 0 1 484.643 448.044 Q 479.636 473.378 464.003 489.011 A 74.181 74.181 0 0 1 431.8 507.608 Q 416.816 512.011 398.003 512.011 Q 365.386 512.011 344.276 498.777 A 69.506 69.506 0 0 1 332.003 489.011 A 73.617 73.617 0 0 1 313.807 457.843 Q 310.242 446.174 309.323 432.088 A 154.786 154.786 0 0 1 309.003 422.011 L 309.003 217.011 A 226.192 226.192 0 0 0 308.086 195.86 Q 306.095 174.742 299.782 161.604 A 50.01 50.01 0 0 0 296.003 155.011 Q 283.003 136.011 253.003 136.011 A 79.384 79.384 0 0 0 228.79 139.516 A 61.843 61.843 0 0 0 197.503 162.011 A 87.15 87.15 0 0 0 184.259 188.694 Q 180.545 200.646 179.036 215.086 A 201.59 201.59 0 0 0 178.003 236.011 L 178.003 422.011 A 129.563 129.563 0 0 1 173.541 457.627 Q 157.964 512.011 88.003 512.011 A 123.01 123.01 0 0 1 61.929 509.415 Q 38.277 504.284 23.003 489.011 A 73.617 73.617 0 0 1 4.807 457.843 Q 1.242 446.174 0.323 432.088 A 154.786 154.786 0 0 1 0.003 422.011 Z"/></g></svg>