<svg width="505.007" height="512.013" viewBox="0 0 505.007 512.013" xmlns="http://www.w3.org/2000/svg"><g id="svgGroup" stroke-linecap="round" fill-rule="nonzero" font-size="9pt" stroke="#ffffff" stroke-width="0" fill="#fed406" style="stroke:#ffffff;stroke-width:0;fill:#fed406"><path d="M 0.003 422.003 L 0.003 91.003 Q 0.003 48.003 22.503 25.003 A 72.725 72.725 0 0 1 55.565 5.947 Q 66.979 2.743 80.599 2.142 A 145.354 145.354 0 0 1 87.003 2.003 Q 118.581 2.003 138.854 15.005 A 66.219 66.219 0 0 1 151.003 25.003 A 74.207 74.207 0 0 1 168.169 55.085 Q 171.719 66.66 172.662 80.605 A 154.168 154.168 0 0 1 173.003 91.003 L 173.003 138.003 L 162.003 97.003 Q 186.003 50.003 230.503 25.003 A 195.763 195.763 0 0 1 307.664 1.2 A 242.662 242.662 0 0 1 332.003 0.003 A 254.143 254.143 0 0 1 373.1 3.135 Q 395.154 6.752 413.307 14.551 A 136.555 136.555 0 0 1 429.003 22.503 A 128.597 128.597 0 0 1 474.522 68.953 A 172.436 172.436 0 0 1 486.003 92.503 Q 500.773 129.427 504.061 181.155 A 486.611 486.611 0 0 1 505.003 212.003 L 505.003 422.003 A 134.392 134.392 0 0 1 502.643 448.036 Q 497.636 473.371 482.003 489.003 A 74.181 74.181 0 0 1 449.8 507.601 Q 434.816 512.003 416.003 512.003 Q 383.386 512.003 362.276 498.769 A 69.506 69.506 0 0 1 350.003 489.003 A 73.617 73.617 0 0 1 331.807 457.836 Q 328.242 446.166 327.323 432.081 A 154.786 154.786 0 0 1 327.003 422.003 L 327.003 219.003 A 206.209 206.209 0 0 0 325.91 196.932 Q 323.491 174.557 315.726 161.152 A 46.866 46.866 0 0 0 311.503 155.003 Q 296.003 136.003 266.003 136.003 A 101.482 101.482 0 0 0 237.261 139.875 A 77.684 77.684 0 0 0 202.003 161.503 A 85.766 85.766 0 0 0 180.839 202.509 A 126.193 126.193 0 0 0 178.003 230.003 L 178.003 422.003 A 129.563 129.563 0 0 1 173.541 457.62 Q 157.964 512.003 88.003 512.003 A 123.01 123.01 0 0 1 61.929 509.408 Q 38.277 504.277 23.003 489.003 A 73.617 73.617 0 0 1 4.807 457.836 Q 1.242 446.166 0.323 432.081 A 154.786 154.786 0 0 1 0.003 422.003 Z"/></g></svg>