<svg width="543.005" height="514.011" viewBox="0 0 543.005 514.011" xmlns="http://www.w3.org/2000/svg"><g id="svgGroup" stroke-linecap="round" fill-rule="nonzero" font-size="9pt" stroke="#ffffff" stroke-width="0" fill="#69cefa" style="stroke:#ffffff;stroke-width:0;fill:#69cefa"><path d="M 272.002 514.005 Q 190.002 514.005 129.002 483.005 Q 68.002 452.005 34.002 394.005 A 244.429 244.429 0 0 1 4.019 308.836 A 322.328 322.328 0 0 1 0.002 257.005 A 378.046 378.046 0 0 1 0.003 256.069 Q 0.08 224.958 5.282 197.22 A 254.409 254.409 0 0 1 19.002 149.505 Q 38.002 102.005 74.002 68.505 A 237.867 237.867 0 0 1 147.721 22.13 A 276.867 276.867 0 0 1 160.002 17.505 A 308.298 308.298 0 0 1 226.292 2.57 A 394.34 394.34 0 0 1 272.002 0.005 Q 354.002 0.005 415.002 31.005 Q 476.002 62.005 509.502 119.505 A 241.619 241.619 0 0 1 538.192 199.611 A 328.067 328.067 0 0 1 543.002 257.005 A 316.656 316.656 0 0 1 536.99 319.9 A 259.334 259.334 0 0 1 524.002 364.005 A 225.733 225.733 0 0 1 479.16 435.797 A 216.331 216.331 0 0 1 469.502 445.505 A 229.545 229.545 0 0 1 401.912 489.38 A 272.624 272.624 0 0 1 383.502 496.505 A 317.168 317.168 0 0 1 310.903 512.121 A 391.784 391.784 0 0 1 272.002 514.005 Z M 272.002 383.005 A 91.944 91.944 0 0 0 301.949 378.246 A 82.849 82.849 0 0 0 320.002 369.505 A 78.842 78.842 0 0 0 343.473 345.757 A 107.768 107.768 0 0 0 352.502 328.505 A 130.679 130.679 0 0 0 359.731 304.503 Q 362.267 292.221 363.297 277.779 A 292.385 292.385 0 0 0 364.002 257.005 A 273.13 273.13 0 0 0 362.058 223.168 Q 356.892 181.939 338.002 160.505 Q 312.002 131.005 272.002 131.005 Q 245.002 131.005 224.002 144.005 A 77.266 77.266 0 0 0 201.267 165.919 A 107.84 107.84 0 0 0 191.002 184.505 A 124.791 124.791 0 0 0 183.689 207.591 Q 179.002 228.88 179.002 257.005 Q 179.002 323.005 205.002 353.005 A 83.757 83.757 0 0 0 265.687 382.822 A 107.484 107.484 0 0 0 272.002 383.005 Z"/></g></svg>